<svg xmlns="http://www.w3.org/2000/svg" version="1.1" xmlns:xlink="http://www.w3.org/1999/xlink" xmlns:svgjs="http://svgjs.dev/svgjs" viewBox="0 0 600 600" opacity="1"><path d="M292.9701708200048 -22.075924220627655C250.82357454721836 -18.280112249599014 232.6298667632014 25.04449718897928 183.80787833953605 39.96596306269754C134.98588991587076 54.8874289364158 41.39949783111339 49.12826444412657 0.038240278012807494 67.45287102168191C-41.32301727508778 85.77747759923726 -53.62668243622059 120.46334236567606 -64.35966697906727 149.91360252802957C-75.09265152191395 179.3638626903831 -65.14500697031889 212.21726005976785 -64.35966697906727 244.154431995803C-63.57432698781564 276.09160393183816 -84.64762766734039 321.1177854707379 -59.647627031557505 341.5366341442405C-34.64762639577462 361.95548281774313 42.05394665822115 353.44762962763895 85.64033683562994 366.66752403681863C129.22672701303873 379.8874184459983 164.30526908660636 420.85600059931863 201.87071403289542 420.85600059931863C239.43615897918448 420.85600059931863 284.46232780242667 397.55757428909726 311.03300651336417 366.66752403681863C337.60368522430167 335.77747378454 338.9125892363459 276.6151736746767 361.2947862985204 235.51569908564676C383.6769833606949 194.41622449661682 432.760743940122 156.45811114415912 445.32618888641105 120.07067650263895C457.89163383270034 83.68324186111877 462.0801256539894 40.8821913570701 436.6874559762548 17.191091236525665C411.29478629852053 -6.500008884018769 335.11676709279124 -25.871736191656304 292.9701708200048 -22.075924220627655C250.82357454721836 -18.280112249599014 232.6298667632014 25.04449718897928 183.80787833953605 39.96596306269754 " fill="hsl(10, 75%, 50%)" transform="matrix(1.0265728187487488,-0.8613968735886957,0.8613968735886957,1.0265728187487488,-200.9028494480158,68.85554047940781)" fill-opacity="0.41"></path><path d="M403.6649169921875,16.49214744567871C361.51832071940106,20.287959416707356,343.3246129353841,63.612568855285645,294.50262451171875,78.5340347290039C245.68063608805338,93.45550060272217,152.0942440032959,87.69633611043294,110.73298645019531,106.02094268798828C69.37172889709473,124.34554926554362,57.068063735961914,159.03141403198242,46.335079193115234,188.48167419433594C35.602094650268555,217.93193435668945,45.54973920186361,250.78533172607422,46.335079193115234,282.7225036621094C47.12041918436686,314.65967559814453,26.04711850484212,359.68585713704425,51.047119140625,380.1047058105469C76.04711977640788,400.5235544840495,152.74869283040366,392.0157012939453,196.3350830078125,405.235595703125C239.92147318522134,418.4554901123047,275.00001525878906,459.424072265625,312.5654602050781,459.424072265625C350.1309051513672,459.424072265625,395.1570739746094,436.1256459554036,421.7277526855469,405.235595703125C448.2984313964844,374.3455454508464,449.6073354085286,315.1832453409831,471.9895324707031,274.0837707519531C494.3717295328776,232.9842961629232,543.4554901123047,195.02618281046549,556.0209350585938,158.6387481689453C568.5863800048828,122.25131352742514,572.7748718261719,79.45026302337646,547.3822021484375,55.75916290283203C521.9895324707031,32.0680627822876,445.81151326497394,12.696335474650065,403.6649169921875,16.49214744567871C361.51832071940106,20.287959416707356,343.3246129353841,63.612568855285645,294.50262451171875,78.5340347290039" fill-opacity="1" fill="hsl(265, 55%, 30%)" opacity="0.31" stroke-opacity="1" stroke-width="0" stroke="hsl(340, 45%, 30%)" transform="matrix(0.2327051658939292,-1.3197365766653624,1.3197365766653624,0.2327051658939292,92.09216753266617,821.3343614621799)"></path></svg>